<svg xmlns="http://www.w3.org/2000/svg" xmlns:xlink="http://www.w3.org/1999/xlink" id="Layer_1" x="0px" y="0px" viewBox="0 0 400 400" style="enable-background:new 0 0 400 400;" xml:space="preserve"> <style type="text/css"> .st0{fill:url(#SVGID_1_);} .st1{fill:none;} .st2{fill:#FFFFFF;} .st3{fill:url(#SVGID_2_);} </style> <g> <linearGradient id="SVGID_1_" gradientUnits="userSpaceOnUse" x1="-18.8156" y1="323.6771" x2="363.7083" y2="163.2398"> <stop offset="0" style="stop-color:#646CAF"></stop> <stop offset="0.471" style="stop-color:#6456AF"></stop> <stop offset="0.573" style="stop-color:#6450AF"></stop> <stop offset="0.5914" style="stop-color:#644EAF"></stop> <stop offset="0.8416" style="stop-color:#6437AF"></stop> <stop offset="1" style="stop-color:#642FAF"></stop> </linearGradient> <path class="st0" d="M15.93,328.95l0-147.21c0-2.23,0.16-4.47,0.57-6.66c0-0.01,0-0.02,0.01-0.04 c1.96-10.53,6.14-19.33,10.68-26.35c4.3-7.36,28.36-42.75,75.14-53.94c10.4-2.49,28.6-5.38,51.51-1.19 c0.11,0.02,0.22,0.05,0.32,0.08c12.26,4,22.83,10.17,37.94,19.3c0.74,0.45,2.92,1.64,5.84,1.69c3.14,0.05,5.49-1.27,5.95-1.51 c3.48-1.82,61.86-29.44,104.77-13.93c35.02,12.66,67.33,43.12,73.32,78.26c1.17,6.85,1.2,12.75,0.99,17v134.51 c0,5-4.05,9.06-9.06,9.06h-58.94c-5,0-9.06-4.05-9.06-9.06V199.32c-0.09-3.37-0.75-10.56-5.47-17.71 c-8.59-12.99-23.21-14.65-24.96-14.82c-15.7-1.52-26.23,8.65-28.29,10.64c-8.01,7.73-10.41,16.89-11.18,21.04 c-0.1,0.54-0.15,1.08-0.15,1.63l0,128.85c0,5-4.05,9.06-9.06,9.06h-57.54c-5,0-9.06-4.05-9.06-9.06V200.31 c0-0.69-0.07-1.37-0.23-2.04c-1.01-4.32-3.51-12.01-10.07-19c-3.01-3.21-12.25-13.06-26.52-12.48c-1.58,0.06-15.94,0.9-24.18,13.26 c-5.19,7.78-5.09,15.85-4.88,18.95c0.01,0.22,0.02,0.43,0.02,0.65v129.31c0,5-4.05,9.06-9.06,9.06H24.99 C19.98,338.01,15.93,333.96,15.93,328.95z"></path> <path class="st1" d="M382.98,162.08"></path> <path class="st2" d="M197.95,114.63"></path> <linearGradient id="SVGID_2_" gradientUnits="userSpaceOnUse" x1="309.5104" y1="107.9003" x2="384.0707" y2="107.9003"> <stop offset="0" style="stop-color:#646CAF"></stop> <stop offset="0.471" style="stop-color:#6456AF"></stop> <stop offset="0.573" style="stop-color:#6450AF"></stop> <stop offset="0.5914" style="stop-color:#644EAF"></stop> <stop offset="0.8416" style="stop-color:#6437AF"></stop> <stop offset="1" style="stop-color:#642FAF"></stop> </linearGradient> <path class="st3" d="M380,152.59c-7.11-14.79-25.44-41.82-69.15-59.52c-0.81-0.33-1.34-1.11-1.34-1.98l0-26.96 c0-1.18,0.96-2.14,2.14-2.14h66.9c3.05,0,5.52,2.47,5.52,5.52v84.16C384.07,153.95,380.99,154.64,380,152.59z"></path> </g> </svg>